<svg width="87" height="97" viewBox="0 0 87 97" fill="none" xmlns="http://www.w3.org/2000/svg">
<path d="M22.3983 2.36322L22.3949 2.36346C13.3894 2.9653 8.70895 5.01241 6.14259 8.41996C4.0478 11.2205 3.02816 14.3146 2.31355 21.5278L2.31315 21.5317C2.21718 22.4813 2.1352 26.4611 2.08073 32.1406C2.02693 37.7504 2 44.8737 2 51.9834C2 59.0931 2.02693 66.1837 2.08073 71.7282C2.13536 77.3581 2.21796 81.2154 2.31016 82.0161L2.31017 82.0161L2.31098 82.0233C2.70205 85.5317 3.21237 87.7127 3.98861 89.2863C4.72297 90.7751 5.76238 91.853 7.53106 92.9954C9.28631 94.1204 11.087 94.651 13.3002 94.651C14.4341 94.651 14.7132 94.633 14.9355 94.5784C15.1458 94.5267 15.3715 94.4265 16.3222 93.9146L16.3411 93.9044L16.3602 93.8946C17.2384 93.4458 18.8031 92.4141 19.7602 91.6442L19.767 91.6387L19.7739 91.6333C21.9009 89.9529 28.4083 83.4814 32.5703 78.8444L32.5737 78.8406C35.349 75.7645 37.1069 73.8769 38.5291 72.8005C39.2892 72.2251 40.0282 71.8195 40.8486 71.5799C41.6515 71.3455 42.4143 71.3062 43.1334 71.3062C44.3033 71.3062 45.3833 71.512 46.4846 72.1104C47.5185 72.6722 48.4583 73.5212 49.4651 74.5873L49.4697 74.5922C56.0058 81.5595 60.3359 86.0453 63.4609 89.0055C66.5928 91.9723 68.4017 93.2956 69.8933 94.0466C72.171 95.1846 74.7084 95.182 77.4616 93.835C78.1934 93.4744 78.5924 93.2384 78.9628 92.9496C79.3517 92.6465 79.7749 92.2339 80.4982 91.4438L80.4991 91.4428C82.3735 89.398 83.0047 88.3429 83.5457 86.721C84.1847 84.7837 84.5887 82.5964 84.8015 77.1222C85.015 71.6305 85.0326 62.9947 84.9645 48.2238V48.2235C84.8506 22.9184 84.7966 21.6216 83.8016 16.6896L83.8006 16.6846C82.8843 12.0821 81.5197 9.47739 79.0117 7.10767L79.0043 7.10065C76.0307 4.26221 72.314 2.92155 63.7565 2.34064L63.7511 2.34026C61.9142 2.21059 52.5993 2.14668 43.1205 2.15238C33.6453 2.15808 24.2963 2.23308 22.3983 2.36322ZM60.7879 18.8592L60.7976 18.8638L60.8073 18.8684C63.2725 20.0474 64.5066 22.8868 63.7766 25.4978C63.6153 26.077 63.2931 26.5719 62.9308 27.0403C62.5571 27.5234 62.0122 28.1369 61.2353 28.9612C59.6725 30.6191 56.9933 33.315 52.4182 37.8787L52.4172 37.8797C52.1556 38.1403 51.8998 38.3952 51.6496 38.6444C46.4309 43.8432 43.6641 46.5995 41.9999 47.9596C41.1448 48.6583 40.3074 49.2285 39.3728 49.4261C38.4314 49.6252 37.6346 49.3774 37.2274 49.2507C37.1951 49.2407 37.1653 49.2314 37.1381 49.2232C36.2768 48.9673 35.5078 48.3659 34.6104 47.5685C33.6468 46.7124 32.2463 45.3512 30.0883 43.2158L30.0864 43.2139C28.6118 41.7507 27.2372 40.3476 26.2014 39.26C25.6845 38.7173 25.2447 38.2454 24.9162 37.8803C24.753 37.6988 24.6077 37.533 24.4906 37.3924L24.4869 37.388C24.409 37.2944 24.2304 37.0801 24.1029 36.8534L24.0859 36.8233L24.07 36.7926C23.5152 35.7211 23.3897 34.4963 23.5379 33.3989C23.6867 32.2967 24.1342 31.1505 24.9345 30.2411L24.9395 30.2354L24.9446 30.2297C25.8124 29.2586 27.0665 28.7446 28.1895 28.5529C29.321 28.3598 30.6734 28.4327 31.8355 29.0432L31.8608 29.0565L31.8857 29.0705C32.1871 29.2401 32.5334 29.537 32.7468 29.7213C33.0297 29.9657 33.3787 30.2813 33.7665 30.6415C34.5442 31.3638 35.5149 32.3 36.4938 33.2789L36.4983 33.2835L38.6006 35.3993L45.8029 28.1971L45.8063 28.1937C48.1829 25.8284 50.4261 23.6307 52.1238 21.9986C52.9715 21.1837 53.69 20.5033 54.2237 20.0115C54.4892 19.7669 54.7197 19.559 54.9026 19.4012C54.9929 19.3232 55.0851 19.2458 55.1714 19.178L55.1776 19.1732C55.2231 19.1373 55.3772 19.0157 55.5705 18.9117C56.4076 18.461 57.3855 18.3201 58.2066 18.3239C59.0437 18.3277 59.9782 18.4826 60.7879 18.8592Z" stroke="white" stroke-width="4"/>
</svg>
