<svg width="956" height="195" viewBox="0 0 956 195" fill="none" xmlns="http://www.w3.org/2000/svg">
<path d="M207.829 13.1025C208.543 16.4895 208.543 20.0548 207.829 23.7984C207.472 25.5811 207.115 27.3637 206.759 29.1464C206.58 30.7508 206.312 32.4443 205.956 34.2269L205.688 35.2965C203.19 46.349 200.335 58.0254 197.123 70.3257C194.09 82.4477 191.324 93.9458 188.826 104.82C186.685 113.733 184.454 123.538 182.135 134.234C179.815 144.93 177.406 154.734 174.908 163.648C174.016 166.678 173.035 169.709 171.964 172.739C171.072 175.77 169.912 178.8 168.485 181.831C167.236 184.505 165.719 186.911 163.935 189.05C162.329 191.011 160.455 192.437 158.314 193.329C156.173 194.398 153.853 194.755 151.355 194.398C149.036 194.22 146.448 193.151 143.593 191.19C139.311 188.159 136.099 183.97 133.958 178.622C131.995 173.274 129.943 168.372 127.802 163.915C127.088 162.667 126.018 159.904 124.59 155.626C123.163 151.347 121.646 146.712 120.04 141.721C118.434 136.551 116.829 131.649 115.223 127.014C113.795 122.201 112.546 118.636 111.476 116.318C109.87 120.24 108.264 124.697 106.658 129.688C105.052 134.679 103.535 139.582 102.108 144.395C100.68 149.208 99.3422 153.576 98.0932 157.497C97.0226 161.241 96.2197 164.004 95.6844 165.787C94.2569 169.352 92.651 173.274 90.8667 177.552C89.2608 181.831 87.2088 185.485 84.7108 188.516C82.3912 191.546 79.5362 193.507 76.146 194.398C72.7558 195.468 68.7411 194.487 64.1018 191.457C60.5332 189.318 58.0351 186.287 56.6077 182.365C55.7155 179.87 54.8233 177.463 53.9312 175.146C53.039 172.828 52.3253 170.422 51.79 167.926L46.437 147.871L35.4634 104.82C34.036 99.2938 32.6085 93.6784 31.1811 87.9739C29.932 82.0912 28.4154 76.0302 26.631 69.7909C25.7389 66.7604 24.9359 63.819 24.2222 60.9667C23.6869 57.9362 23.0624 54.7275 22.3487 51.3404C21.8134 47.7751 21.0996 43.7641 20.2075 39.3075C19.4937 34.8509 18.6016 29.6812 17.531 23.7984C17.1741 21.8375 16.9065 20.0548 16.728 18.4505C16.728 16.6678 16.9065 14.8851 17.2633 13.1025C17.6202 10.4285 18.8692 8.11107 21.0104 6.15015C21.9026 5.25882 22.9732 4.54576 24.2222 4.01097C25.4712 3.47617 26.8095 3.0305 28.2369 2.67398C30.3781 1.96091 32.6085 1.60438 34.9281 1.60438C37.0693 1.60438 39.2997 2.31745 41.6193 3.74357C43.2252 4.6349 44.4743 5.79362 45.3664 7.21973L48.5782 12.8351C48.9351 14.083 49.2919 15.2417 49.6488 16.3113C50.0057 17.2026 50.3625 18.1831 50.7194 19.2526C51.0763 20.5005 51.3439 21.6592 51.5223 22.7288C51.7008 23.6202 51.8792 24.5115 52.0576 25.4028C53.6635 34.6726 55.6263 43.675 57.9459 52.41C60.2655 61.145 62.4067 69.5235 64.3695 77.5454C65.0832 80.7542 65.9754 84.7652 67.046 89.5783C68.1166 94.2132 69.1872 99.1155 70.2578 104.285C71.3283 109.277 72.3989 114.09 73.4695 118.725C74.5401 123.36 75.6107 127.014 76.6813 129.688C79.0009 121.666 81.3206 113.644 83.6402 105.622C86.1382 97.6003 88.8147 89.4892 91.6696 81.289C93.0971 77.0106 94.5246 73.1779 95.952 69.7909C97.5579 66.2256 99.3422 63.2842 101.305 60.9667C103.268 58.6493 105.498 57.134 107.996 56.421C110.494 55.7079 113.438 55.9753 116.829 57.2232C119.862 58.471 122.538 61.145 124.858 65.2451C127.178 69.3452 129.23 73.5344 131.014 77.8128C132.62 81.7347 134.137 85.9239 135.564 90.3805C137.17 94.6589 138.687 98.9373 140.114 103.216C141.72 107.316 143.237 111.238 144.664 114.981C146.092 118.725 147.519 121.933 148.946 124.607C149.482 122.647 150.106 120.151 150.82 117.12C151.534 114.09 152.247 110.881 152.961 107.494C153.853 103.929 154.656 100.453 155.37 97.0655C156.084 93.6784 156.797 90.5588 157.511 87.7065C159.831 78.0802 162.24 68.4539 164.738 58.8276C167.236 49.023 169.645 39.3966 171.964 29.9486L173.302 25.4028C173.659 24.5115 173.838 23.6202 173.838 22.7288C174.016 21.6592 174.284 20.5005 174.641 19.2526C174.998 18.1831 175.354 17.2026 175.711 16.3113C176.068 15.2417 176.425 14.083 176.782 12.8351C177.139 11.9438 177.496 11.0524 177.852 10.1611C178.388 9.09152 179.012 8.11106 179.726 7.21973C180.261 6.32841 180.886 5.61535 181.6 5.08056C182.313 4.54576 183.027 4.1001 183.741 3.74357C186.239 2.31745 188.38 1.60438 190.164 1.60438C192.484 1.60438 194.714 1.96091 196.856 2.67398C199.71 3.20877 202.298 4.36749 204.617 6.15015C206.402 7.93281 207.472 10.2503 207.829 13.1025Z" fill="#524DEF" fill-opacity="0.33"/>
<path d="M246.95 79.1498C252.303 76.4758 257.923 74.604 263.812 73.5344C269.7 72.2866 275.499 72.0192 281.209 72.7323C287.097 73.267 292.718 74.7823 298.071 77.278C303.424 79.5955 308.42 82.9825 313.059 87.4391C317.698 92.074 321.267 97.1546 323.765 102.681C326.263 108.207 328.047 114.357 329.118 121.131C329.832 125.766 330.991 130.045 332.597 133.966C334.203 137.888 335.898 141.81 337.683 145.732C339.645 149.654 341.43 153.576 343.036 157.497C344.82 161.419 346.247 165.519 347.318 169.798C348.21 173.898 347.853 177.909 346.247 181.831C344.82 185.574 341.787 187.892 337.147 188.783C334.471 189.318 331.884 189.14 329.385 188.248C327.066 187.179 324.925 185.752 322.962 183.97C320.999 182.009 319.215 179.959 317.609 177.82C316.181 175.502 314.843 173.363 313.594 171.402C309.49 176.75 305.029 180.939 300.212 183.97C295.394 186.822 289.595 188.694 282.815 189.585C277.105 190.298 271.663 190.477 266.488 190.12C261.314 189.763 255.782 188.783 249.894 187.179C242.221 185.218 235.887 181.831 230.891 177.017C226.073 172.026 222.326 166.322 219.65 159.904C217.151 153.308 215.813 146.267 215.635 138.78C215.456 131.292 216.349 123.894 218.311 116.586C220.809 106.959 224.556 99.1155 229.553 93.0545C234.549 86.9935 240.348 82.3586 246.95 79.1498ZM253.641 110.435C251.143 112.931 249.18 115.872 247.753 119.26C246.325 122.647 245.433 126.212 245.076 129.955C244.898 133.699 245.255 137.443 246.147 141.186C247.039 144.93 248.466 148.228 250.429 151.08C252.213 153.576 255.247 155.715 259.529 157.497C263.812 159.102 268.272 160.082 272.912 160.439C278.265 160.795 282.904 159.369 286.829 156.16C290.933 152.952 293.967 148.941 295.929 144.128C298.071 139.136 299.052 133.877 298.874 128.351C298.695 122.647 297.178 117.477 294.324 112.842C292.182 109.455 289.327 106.959 285.759 105.355C282.369 103.75 278.711 102.948 274.785 102.948C270.86 102.77 266.934 103.394 263.009 104.82C259.262 106.068 256.139 107.94 253.641 110.435Z" fill="#524DEF" fill-opacity="0.33"/>
<path d="M452.245 73.8018C453.672 77.1889 453.761 80.9325 452.512 85.0326C451.442 89.1327 449.39 91.8066 446.356 93.0545C444.75 93.7676 442.609 94.3915 439.933 94.9263C437.256 95.2828 434.312 95.6394 431.1 95.9959C428.067 96.3524 425.034 96.6198 422 96.7981C418.967 96.9763 416.38 97.0655 414.238 97.0655C414.417 102.413 414.595 107.94 414.774 113.644C414.952 119.17 415.131 124.607 415.309 129.955C415.487 135.303 415.577 140.473 415.577 145.465C415.577 150.278 415.487 154.645 415.309 158.567C415.309 161.241 415.309 164.361 415.309 167.926C415.309 171.313 415.041 174.611 414.506 177.82C414.149 181.028 413.525 183.881 412.633 186.376C411.74 188.694 410.402 190.209 408.618 190.922C403.086 193.24 398.001 193.864 393.362 192.794C388.901 191.903 385.689 190.031 383.726 187.179C382.299 184.861 381.228 182.187 380.515 179.157C379.801 175.948 379.266 172.739 378.909 169.53C378.73 166.143 378.641 162.935 378.641 159.904C378.82 156.695 378.909 153.932 378.909 151.615C379.087 144.128 379.176 135.66 379.176 126.212C379.355 116.586 379.444 106.959 379.444 97.3329H375.429C373.288 97.3329 370.522 97.3329 367.132 97.3329C363.92 97.1546 360.62 96.8872 357.229 96.5307C354.018 95.9959 350.984 95.372 348.129 94.6589C345.274 93.7676 343.222 92.5197 341.973 90.9153C340.011 88.5979 338.762 86.1022 338.226 83.4282C337.869 80.7542 338.048 78.2585 338.762 75.941C339.654 73.4453 340.992 71.3061 342.776 69.5235C344.561 67.5626 346.613 66.3147 348.932 65.7799C352.144 64.8886 356.694 64.4429 362.582 64.4429C368.471 64.2647 374.002 64.2647 379.176 64.4429C378.998 62.6603 378.909 60.9667 378.909 59.3624C378.909 57.5797 378.82 55.8862 378.641 54.2818C378.463 52.1426 378.374 49.4686 378.374 46.2598C378.374 42.8728 378.552 39.5749 378.909 36.3661C379.444 32.9791 380.247 29.8594 381.318 27.0072C382.388 23.9767 383.905 21.6592 385.868 20.0548C388.544 17.9157 391.221 16.7569 393.897 16.5787C396.752 16.2221 399.339 16.5787 401.659 17.6483C404.157 18.7179 406.209 20.3222 407.815 22.4614C409.599 24.4223 410.848 26.6507 411.562 29.1464C412.097 31.2856 412.543 33.8704 412.9 36.9009C413.257 39.7532 413.435 42.7837 413.435 45.9925C413.614 49.2012 413.703 52.41 413.703 55.6188C413.703 58.8276 413.703 61.7689 413.703 64.4429H416.38C419.056 64.4429 422.179 64.3538 425.747 64.1755C429.316 63.9973 432.795 64.0864 436.186 64.4429C439.754 64.7994 442.966 65.6908 445.821 67.1169C448.676 68.3648 450.817 70.5931 452.245 73.8018Z" fill="#524DEF" fill-opacity="0.33"/>
<path d="M561.154 88.7761C562.582 91.2719 563.296 93.9458 563.296 96.7981C563.474 99.6503 562.85 102.324 561.422 104.82C559.816 108.029 557.497 110.257 554.463 111.505C551.608 112.575 548.397 112.664 544.828 111.772C543.222 111.416 541.795 110.792 540.546 109.901C539.297 109.009 537.958 108.118 536.531 107.227C535.282 106.157 533.765 105.177 531.981 104.285C530.375 103.394 528.234 102.77 525.557 102.413C522.881 102.057 519.937 102.057 516.725 102.413C513.691 102.77 510.926 103.483 508.428 104.553C504.502 106.514 501.38 109.544 499.06 113.644C496.74 117.566 495.224 121.844 494.51 126.479C493.796 130.936 493.885 135.482 494.778 140.117C495.848 144.751 497.811 148.673 500.666 151.882C502.807 154.378 505.573 156.428 508.963 158.032C512.532 159.637 515.922 160.617 519.134 160.974C522.167 161.33 525.2 161.33 528.234 160.974C531.267 160.439 534.211 159.726 537.066 158.834C539.207 157.943 541.616 156.784 544.293 155.358C546.969 153.754 549.556 152.773 552.054 152.417C555.266 152.417 557.764 153.308 559.549 155.091C561.333 156.695 562.582 158.745 563.296 161.241C564.009 163.558 564.099 166.054 563.563 168.728C563.206 171.402 562.225 173.72 560.619 175.68C558.478 178.354 555.445 180.939 551.519 183.435C547.594 185.752 543.847 187.446 540.278 188.516C535.995 189.942 531.178 190.744 525.825 190.922C520.65 191.1 515.743 190.922 511.104 190.387C508.963 190.031 506.733 189.585 504.413 189.05C502.093 188.516 499.863 187.892 497.722 187.179C489.871 184.326 483.269 180.315 477.916 175.146C472.741 169.798 468.727 163.826 465.872 157.23C463.195 150.634 461.678 143.593 461.322 136.106C460.965 128.618 461.857 121.22 463.998 113.912C465.961 106.959 468.37 101.076 471.225 96.2633C474.258 91.4501 477.737 87.5283 481.663 84.4978C485.767 81.289 490.317 78.7933 495.313 77.0106C500.309 75.0497 505.84 73.3562 511.907 71.9301C518.152 70.6822 524.754 70.6822 531.713 71.9301C538.672 73.1779 544.917 75.4954 550.449 78.8824C554.731 81.1999 558.3 84.4978 561.154 88.7761Z" fill="#524DEF" fill-opacity="0.33"/>
<path d="M689.603 139.047C689.781 142.612 689.87 146.356 689.87 150.278C689.87 154.021 689.781 157.497 689.603 160.706C689.424 165.519 689.157 169.976 688.8 174.076C688.443 177.998 687.729 181.385 686.659 184.237C685.588 186.911 683.893 188.961 681.573 190.387C679.432 191.635 676.399 191.992 672.473 191.457C668.369 190.922 665.425 188.961 663.641 185.574C661.857 182.187 660.608 178.354 659.894 174.076C659.359 169.619 659.18 165.163 659.358 160.706C659.537 156.25 659.537 152.773 659.358 150.278C659.18 146.356 659.002 141.899 658.823 136.908C658.823 131.738 658.288 126.925 657.217 122.468C656.325 117.833 654.719 113.912 652.4 110.703C650.08 107.494 646.601 105.8 641.961 105.622C636.073 105.266 631.523 105.711 628.311 106.959C625.278 108.207 623.047 110.079 621.62 112.575C620.193 114.892 619.3 117.744 618.944 121.131C618.765 124.518 618.408 128.173 617.873 132.095L617.605 142.523V162.043C617.605 165.252 617.516 168.639 617.338 172.204C617.338 175.591 616.802 178.711 615.732 181.563C614.661 184.415 612.966 186.822 610.646 188.783C608.505 190.744 605.293 191.724 601.011 191.724C595.658 191.724 591.643 190.031 588.967 186.644C586.469 183.079 585.22 178.711 585.22 173.541V19.7875C585.22 18.7179 585.22 17.7374 585.22 16.8461C585.398 15.7765 585.577 14.7069 585.755 13.6373C586.112 12.5677 586.38 11.5872 586.558 10.6959C586.737 9.62632 587.004 8.64586 587.361 7.75454C587.896 5.97189 588.788 4.6349 590.037 3.74357C590.93 2.85225 591.822 2.13918 592.714 1.60438C593.606 1.06958 594.588 0.713052 595.658 0.534789C596.55 0.356526 597.532 0.267395 598.602 0.267395C599.673 0.0891315 600.743 0 601.814 0C604.491 0 607.078 0.802194 609.576 2.40658C610.646 3.11964 611.628 3.92182 612.52 4.81315C613.412 5.52621 614.126 6.59581 614.661 8.02193C616.089 11.409 616.802 14.6178 616.802 17.6483C616.981 18.5396 617.07 19.8766 617.07 21.6592C617.248 23.2636 617.338 24.9571 617.338 26.7398C617.338 28.5224 617.338 30.3051 617.338 32.0878C617.516 33.6922 617.605 34.94 617.605 35.8313V37.1683C617.784 42.8728 617.873 48.6664 617.873 54.5492C617.873 60.4319 617.873 66.4038 617.873 72.4649V77.0106C625.367 74.5149 633.218 73.3562 641.426 73.5344C649.634 73.5344 656.95 75.1388 663.373 78.3476C669.975 81.7347 674.971 85.5674 678.362 89.8457C681.93 94.1241 684.517 98.8481 686.123 104.018C687.729 109.188 688.621 114.714 688.8 120.597C689.157 126.479 689.424 132.629 689.603 139.047Z" fill="#524DEF" fill-opacity="0.33"/>
<path d="M803.809 155.091C805.95 154.556 808.092 154.2 810.233 154.021C812.552 153.843 814.604 154.11 816.389 154.823C818.352 155.537 819.957 156.784 821.206 158.567C822.455 160.171 823.08 162.489 823.08 165.519C823.08 167.659 822.545 169.709 821.474 171.67C820.403 173.63 819.065 175.413 817.459 177.017C815.853 178.622 814.069 180.048 812.106 181.296C810.144 182.365 808.27 183.257 806.486 183.97C801.311 186.287 795.334 188.07 788.553 189.318C781.951 190.566 775.082 191.011 767.944 190.655C758.309 190.298 749.031 188.426 740.109 185.039C731.366 181.474 724.496 175.68 719.5 167.659C714.861 159.815 712.095 151.08 711.203 141.454C710.311 131.827 710.757 122.736 712.541 114.179C714.504 103.84 717.805 95.4611 722.444 89.0435C727.262 82.4477 732.972 77.1889 739.574 73.2671C747.603 68.6322 756.614 66.2256 766.606 66.0473C776.598 65.869 786.144 67.83 795.244 71.9301C801.311 74.604 806.753 78.2585 811.571 82.8934C816.389 87.35 820.047 92.7871 822.545 99.2047C823.258 100.809 823.794 102.77 824.151 105.087C824.686 107.405 825.043 109.901 825.221 112.575C825.4 115.07 825.4 117.566 825.221 120.062C825.043 122.557 824.597 124.786 823.883 126.747C822.812 129.955 821.474 132.451 819.868 134.234C818.262 136.016 816.21 137.353 813.712 138.245C811.214 139.136 808.181 139.76 804.612 140.117C801.222 140.295 797.118 140.473 792.3 140.651C788.018 140.83 784.003 140.919 780.256 140.919C776.509 140.919 772.673 140.919 768.747 140.919C764.822 140.74 760.718 140.651 756.435 140.651C752.331 140.473 747.692 140.295 742.518 140.117C741.982 143.682 742.429 146.802 743.856 149.475C745.462 151.971 747.603 154.11 750.28 155.893C752.956 157.497 755.989 158.745 759.38 159.637C762.77 160.528 766.071 161.063 769.283 161.241C775.349 161.598 781.148 161.152 786.68 159.904C792.211 158.478 797.921 156.873 803.809 155.091ZM792.3 103.216C788.91 99.2938 785.342 96.4415 781.594 94.6589C778.74 93.411 775.706 92.8762 772.494 93.0545C769.461 93.0545 766.517 93.5002 763.662 94.3915C758.487 95.6394 754.116 98.3133 750.547 102.413C750.19 102.77 749.566 103.661 748.674 105.087C747.782 106.335 746.889 107.672 745.997 109.098C745.283 110.525 744.748 111.861 744.391 113.109C744.034 114.357 744.213 114.981 744.927 114.981H797.386C797.207 112.485 796.761 110.435 796.047 108.831C795.334 107.048 794.085 105.177 792.3 103.216Z" fill="#524DEF" fill-opacity="0.33"/>
<path d="M847.124 97.0655C847.124 94.9263 847.124 92.5197 847.124 89.8457C847.124 86.9935 847.214 84.1412 847.392 81.289C847.571 78.2585 847.838 75.4062 848.195 72.7323C848.73 69.88 849.444 67.3843 850.336 65.2451C851.764 62.0363 853.994 59.8972 857.027 58.8276C860.061 57.5797 863.362 57.0449 866.93 57.2232C870.678 57.2232 873.622 57.8471 875.763 59.095C877.904 60.3428 879.51 62.0363 880.58 64.1755C881.651 66.1364 882.276 68.4539 882.454 71.1279C882.811 73.6236 882.989 76.2976 882.989 79.1498C884.595 76.2976 886.736 73.9801 889.413 72.1975C892.268 70.4148 895.123 68.9887 897.978 67.9191C900.833 66.8495 903.42 66.1364 905.739 65.7799C908.059 65.2451 909.397 64.9777 909.754 64.9777C914.215 64.6212 918.23 64.5321 921.798 64.7103C925.545 64.8886 929.649 65.6908 934.11 67.1169C936.965 68.1865 939.909 69.7017 942.943 71.6627C945.976 73.4453 948.652 75.5845 950.972 78.0802C953.292 80.5759 954.808 83.339 955.522 86.3696C956.414 89.2218 956.057 92.2523 954.451 95.4611C951.953 99.9177 949.188 102.146 946.154 102.146C943.121 101.968 939.82 101.433 936.251 100.542C934.289 100.185 931.969 99.3829 929.293 98.1351C926.616 96.8872 924.296 96.085 922.334 95.7285C916.267 94.8372 910.914 95.2828 906.275 97.0655C901.636 98.8481 897.621 100.987 894.231 103.483C890.305 106.514 886.915 109.99 884.06 113.912V152.417C884.06 157.23 883.971 162.221 883.792 167.391C883.792 172.561 883.079 177.285 881.651 181.563C880.402 185.663 878.172 189.05 874.96 191.724C871.927 194.22 867.466 195.29 861.577 194.933C858.366 194.755 855.511 193.24 853.013 190.387C850.515 187.357 848.998 184.415 848.463 181.563C848.106 178.889 847.838 175.68 847.66 171.937C847.481 168.193 847.303 164.272 847.124 160.171C847.124 156.071 847.124 151.971 847.124 147.871C847.124 143.593 847.124 139.671 847.124 136.106V97.0655Z" fill="#524DEF" fill-opacity="0.33"/>
<path d="M191.101 13.1025C191.815 16.4895 191.815 20.0548 191.101 23.7984C190.744 25.5811 190.387 27.3637 190.03 29.1464C189.852 30.7508 189.584 32.4443 189.228 34.2269L188.96 35.2965C186.462 46.349 183.607 58.0254 180.395 70.3257C177.362 82.4477 174.596 93.9458 172.098 104.82C169.957 113.733 167.726 123.538 165.407 134.234C163.087 144.93 160.678 154.734 158.18 163.648C157.288 166.678 156.307 169.709 155.236 172.739C154.344 175.77 153.184 178.8 151.757 181.831C150.508 184.505 148.991 186.911 147.207 189.05C145.601 191.011 143.727 192.437 141.586 193.329C139.445 194.398 137.125 194.755 134.627 194.398C132.308 194.22 129.72 193.151 126.865 191.19C122.583 188.159 119.371 183.97 117.23 178.622C115.267 173.274 113.215 168.372 111.074 163.915C110.36 162.667 109.29 159.904 107.862 155.626C106.435 151.347 104.918 146.712 103.312 141.721C101.706 136.551 100.101 131.649 98.4947 127.014C97.0672 122.201 95.8182 118.636 94.7476 116.318C93.1417 120.24 91.5358 124.697 89.9299 129.688C88.324 134.679 86.8074 139.582 85.3799 144.395C83.9524 149.208 82.6142 153.576 81.3652 157.497C80.2946 161.241 79.4916 164.004 78.9563 165.787C77.5289 169.352 75.923 173.274 74.1387 177.552C72.5328 181.831 70.4808 185.485 67.9827 188.516C65.6631 191.546 62.8082 193.507 59.418 194.398C56.0278 195.468 52.013 194.487 47.3738 191.457C43.8051 189.318 41.3071 186.287 39.8796 182.365C38.9875 179.87 38.0953 177.463 37.2031 175.146C36.311 172.828 35.5973 170.422 35.062 167.926L29.709 147.871L18.7354 104.82C17.3079 99.2938 15.8805 93.6784 14.453 87.9739C13.204 82.0912 11.6873 76.0302 9.903 69.7909C9.01084 66.7604 8.20789 63.819 7.49416 60.9667C6.95886 57.9362 6.33435 54.7275 5.62062 51.3404C5.08532 47.7751 4.37159 43.7641 3.47943 39.3075C2.7657 34.8509 1.87354 29.6812 0.802945 23.7984C0.446081 21.8375 0.178432 20.0548 0 18.4505C0 16.6678 0.178432 14.8851 0.535297 13.1025C0.892162 10.4285 2.14119 8.11107 4.28238 6.15015C5.17454 5.25882 6.24513 4.54576 7.49416 4.01097C8.74319 3.47617 10.0814 3.0305 11.5089 2.67398C13.6501 1.96091 15.8805 1.60438 18.2001 1.60438C20.3413 1.60438 22.5717 2.31745 24.8913 3.74357C26.4972 4.6349 27.7462 5.79362 28.6384 7.21973L31.8502 12.8351C32.207 14.083 32.5639 15.2417 32.9208 16.3113C33.2776 17.2026 33.6345 18.1831 33.9914 19.2526C34.3482 20.5005 34.6159 21.6592 34.7943 22.7288C34.9727 23.6202 35.1512 24.5115 35.3296 25.4028C36.9355 34.6726 38.8983 43.675 41.2179 52.41C43.5375 61.145 45.6787 69.5235 47.6414 77.5454C48.3552 80.7542 49.2473 84.7652 50.3179 89.5783C51.3885 94.2132 52.4591 99.1155 53.5297 104.285C54.6003 109.277 55.6709 114.09 56.7415 118.725C57.8121 123.36 58.8827 127.014 59.9533 129.688C62.2729 121.666 64.5925 113.644 66.9121 105.622C69.4102 97.6003 72.0867 89.4892 74.9416 81.289C76.3691 77.0106 77.7965 73.1779 79.224 69.7909C80.8299 66.2256 82.6142 63.2842 84.5769 60.9667C86.5397 58.6493 88.7701 57.134 91.2682 56.421C93.7662 55.7079 96.7104 55.9753 100.101 57.2232C103.134 58.471 105.81 61.145 108.13 65.2451C110.45 69.3452 112.502 73.5344 114.286 77.8128C115.892 81.7347 117.409 85.9239 118.836 90.3805C120.442 94.6589 121.959 98.9373 123.386 103.216C124.992 107.316 126.509 111.238 127.936 114.981C129.363 118.725 130.791 121.933 132.218 124.607C132.754 122.647 133.378 120.151 134.092 117.12C134.806 114.09 135.519 110.881 136.233 107.494C137.125 103.929 137.928 100.453 138.642 97.0655C139.356 93.6784 140.069 90.5588 140.783 87.7065C143.103 78.0802 145.512 68.4539 148.01 58.8276C150.508 49.023 152.917 39.3966 155.236 29.9486L156.574 25.4028C156.931 24.5115 157.11 23.6202 157.11 22.7288C157.288 21.6592 157.556 20.5005 157.913 19.2526C158.27 18.1831 158.626 17.2026 158.983 16.3113C159.34 15.2417 159.697 14.083 160.054 12.8351C160.411 11.9438 160.768 11.0524 161.124 10.1611C161.66 9.09152 162.284 8.11106 162.998 7.21973C163.533 6.32841 164.158 5.61535 164.872 5.08056C165.585 4.54576 166.299 4.1001 167.013 3.74357C169.511 2.31745 171.652 1.60438 173.436 1.60438C175.756 1.60438 177.986 1.96091 180.127 2.67398C182.982 3.20877 185.57 4.36749 187.889 6.15015C189.674 7.93281 190.744 10.2503 191.101 13.1025Z" fill="#524DEF"/>
<path d="M230.222 79.1498C235.575 76.4758 241.195 74.604 247.084 73.5344C252.972 72.2866 258.771 72.0192 264.481 72.7323C270.369 73.267 275.99 74.7823 281.343 77.278C286.696 79.5955 291.692 82.9825 296.331 87.4391C300.97 92.074 304.539 97.1546 307.037 102.681C309.535 108.207 311.319 114.357 312.39 121.131C313.104 125.766 314.263 130.045 315.869 133.966C317.475 137.888 319.17 141.81 320.955 145.732C322.917 149.654 324.702 153.576 326.308 157.497C328.092 161.419 329.519 165.519 330.59 169.798C331.482 173.898 331.125 177.909 329.519 181.831C328.092 185.574 325.058 187.892 320.419 188.783C317.743 189.318 315.156 189.14 312.657 188.248C310.338 187.179 308.197 185.752 306.234 183.97C304.271 182.009 302.487 179.959 300.881 177.82C299.453 175.502 298.115 173.363 296.866 171.402C292.762 176.75 288.301 180.939 283.484 183.97C278.666 186.822 272.867 188.694 266.087 189.585C260.377 190.298 254.935 190.477 249.76 190.12C244.585 189.763 239.054 188.783 233.166 187.179C225.493 185.218 219.159 181.831 214.163 177.017C209.345 172.026 205.598 166.322 202.922 159.904C200.423 153.308 199.085 146.267 198.907 138.78C198.728 131.292 199.621 123.894 201.583 116.586C204.081 106.959 207.828 99.1155 212.825 93.0545C217.821 86.9935 223.62 82.3586 230.222 79.1498ZM236.913 110.435C234.415 112.931 232.452 115.872 231.025 119.26C229.597 122.647 228.705 126.212 228.348 129.955C228.17 133.699 228.527 137.443 229.419 141.186C230.311 144.93 231.738 148.228 233.701 151.08C235.485 153.576 238.519 155.715 242.801 157.497C247.084 159.102 251.544 160.082 256.184 160.439C261.537 160.795 266.176 159.369 270.101 156.16C274.205 152.952 277.239 148.941 279.201 144.128C281.343 139.136 282.324 133.877 282.145 128.351C281.967 122.647 280.45 117.477 277.595 112.842C275.454 109.455 272.599 106.959 269.031 105.355C265.64 103.75 261.983 102.948 258.057 102.948C254.132 102.77 250.206 103.394 246.281 104.82C242.534 106.068 239.411 107.94 236.913 110.435Z" fill="#524DEF"/>
<path d="M435.516 73.8018C436.944 77.1889 437.033 80.9325 435.784 85.0326C434.714 89.1327 432.662 91.8066 429.628 93.0545C428.022 93.7676 425.881 94.3915 423.205 94.9263C420.528 95.2828 417.584 95.6394 414.372 95.9959C411.339 96.3524 408.306 96.6198 405.272 96.7981C402.239 96.9763 399.652 97.0655 397.51 97.0655C397.689 102.413 397.867 107.94 398.046 113.644C398.224 119.17 398.403 124.607 398.581 129.955C398.759 135.303 398.849 140.473 398.849 145.465C398.849 150.278 398.759 154.645 398.581 158.567C398.581 161.241 398.581 164.361 398.581 167.926C398.581 171.313 398.313 174.611 397.778 177.82C397.421 181.028 396.797 183.881 395.905 186.376C395.012 188.694 393.674 190.209 391.89 190.922C386.358 193.24 381.273 193.864 376.634 192.794C372.173 191.903 368.961 190.031 366.998 187.179C365.571 184.861 364.5 182.187 363.787 179.157C363.073 175.948 362.538 172.739 362.181 169.53C362.002 166.143 361.913 162.935 361.913 159.904C362.092 156.695 362.181 153.932 362.181 151.615C362.359 144.128 362.448 135.66 362.448 126.212C362.627 116.586 362.716 106.959 362.716 97.3329H358.701C356.56 97.3329 353.794 97.3329 350.404 97.3329C347.192 97.1546 343.891 96.8872 340.501 96.5307C337.289 95.9959 334.256 95.372 331.401 94.6589C328.546 93.7676 326.494 92.5197 325.245 90.9153C323.283 88.5979 322.034 86.1022 321.498 83.4282C321.141 80.7542 321.32 78.2585 322.033 75.941C322.926 73.4453 324.264 71.3061 326.048 69.5235C327.833 67.5626 329.885 66.3147 332.204 65.7799C335.416 64.8886 339.966 64.4429 345.854 64.4429C351.742 64.2647 357.274 64.2647 362.448 64.4429C362.27 62.6603 362.181 60.9667 362.181 59.3624C362.181 57.5797 362.092 55.8862 361.913 54.2818C361.735 52.1426 361.645 49.4686 361.645 46.2598C361.645 42.8728 361.824 39.5749 362.181 36.3661C362.716 32.9791 363.519 29.8594 364.59 27.0072C365.66 23.9767 367.177 21.6592 369.14 20.0548C371.816 17.9157 374.493 16.7569 377.169 16.5787C380.024 16.2221 382.611 16.5787 384.931 17.6483C387.429 18.7179 389.481 20.3222 391.087 22.4614C392.871 24.4223 394.12 26.6507 394.834 29.1464C395.369 31.2856 395.815 33.8704 396.172 36.9009C396.529 39.7532 396.707 42.7837 396.707 45.9925C396.886 49.2012 396.975 52.41 396.975 55.6188C396.975 58.8276 396.975 61.7689 396.975 64.4429H399.652C402.328 64.4429 405.451 64.3538 409.019 64.1755C412.588 63.9973 416.067 64.0864 419.458 64.4429C423.026 64.7994 426.238 65.6908 429.093 67.1169C431.948 68.3648 434.089 70.5931 435.516 73.8018Z" fill="#524DEF"/>
<path d="M544.426 88.7761C545.854 91.2719 546.568 93.9458 546.568 96.7981C546.746 99.6503 546.122 102.324 544.694 104.82C543.088 108.029 540.769 110.257 537.735 111.505C534.88 112.575 531.669 112.664 528.1 111.772C526.494 111.416 525.067 110.792 523.817 109.901C522.568 109.009 521.23 108.118 519.803 107.227C518.554 106.157 517.037 105.177 515.253 104.285C513.647 103.394 511.506 102.77 508.829 102.413C506.153 102.057 503.209 102.057 499.997 102.413C496.963 102.77 494.198 103.483 491.7 104.553C487.774 106.514 484.652 109.544 482.332 113.644C480.012 117.566 478.496 121.844 477.782 126.479C477.068 130.936 477.157 135.482 478.05 140.117C479.12 144.751 481.083 148.673 483.938 151.882C486.079 154.378 488.845 156.428 492.235 158.032C495.804 159.637 499.194 160.617 502.406 160.974C505.439 161.33 508.472 161.33 511.506 160.974C514.539 160.439 517.483 159.726 520.338 158.834C522.479 157.943 524.888 156.784 527.565 155.358C530.241 153.754 532.828 152.773 535.326 152.417C538.538 152.417 541.036 153.308 542.821 155.091C544.605 156.695 545.854 158.745 546.568 161.241C547.281 163.558 547.371 166.054 546.835 168.728C546.478 171.402 545.497 173.72 543.891 175.68C541.75 178.354 538.717 180.939 534.791 183.435C530.866 185.752 527.119 187.446 523.55 188.516C519.267 189.942 514.45 190.744 509.097 190.922C503.922 191.1 499.015 190.922 494.376 190.387C492.235 190.031 490.005 189.585 487.685 189.05C485.365 188.516 483.135 187.892 480.994 187.179C473.143 184.326 466.541 180.315 461.188 175.146C456.013 169.798 451.998 163.826 449.144 157.23C446.467 150.634 444.95 143.593 444.594 136.106C444.237 128.618 445.129 121.22 447.27 113.912C449.233 106.959 451.642 101.076 454.497 96.2633C457.53 91.4501 461.009 87.5283 464.935 84.4978C469.039 81.289 473.589 78.7933 478.585 77.0106C483.581 75.0497 489.112 73.3562 495.179 71.9301C501.424 70.6822 508.026 70.6822 514.985 71.9301C521.944 73.1779 528.189 75.4954 533.721 78.8824C538.003 81.1999 541.572 84.4978 544.426 88.7761Z" fill="#524DEF"/>
<path d="M672.875 139.047C673.053 142.612 673.142 146.356 673.142 150.278C673.142 154.021 673.053 157.497 672.875 160.706C672.696 165.519 672.429 169.976 672.072 174.076C671.715 177.998 671.001 181.385 669.931 184.237C668.86 186.911 667.165 188.961 664.845 190.387C662.704 191.635 659.671 191.992 655.745 191.457C651.641 190.922 648.697 188.961 646.913 185.574C645.129 182.187 643.88 178.354 643.166 174.076C642.63 169.619 642.452 165.163 642.63 160.706C642.809 156.25 642.809 152.773 642.63 150.278C642.452 146.356 642.274 141.899 642.095 136.908C642.095 131.738 641.56 126.925 640.489 122.468C639.597 117.833 637.991 113.912 635.672 110.703C633.352 107.494 629.873 105.8 625.233 105.622C619.345 105.266 614.795 105.711 611.583 106.959C608.55 108.207 606.319 110.079 604.892 112.575C603.465 114.892 602.572 117.744 602.216 121.131C602.037 124.518 601.68 128.173 601.145 132.095L600.877 142.523V162.043C600.877 165.252 600.788 168.639 600.61 172.204C600.61 175.591 600.074 178.711 599.004 181.563C597.933 184.415 596.238 186.822 593.918 188.783C591.777 190.744 588.565 191.724 584.283 191.724C578.93 191.724 574.915 190.031 572.239 186.644C569.741 183.079 568.492 178.711 568.492 173.541V19.7875C568.492 18.7179 568.492 17.7374 568.492 16.8461C568.67 15.7765 568.849 14.7069 569.027 13.6373C569.384 12.5677 569.652 11.5872 569.83 10.6959C570.009 9.62632 570.276 8.64586 570.633 7.75454C571.168 5.97189 572.06 4.6349 573.309 3.74357C574.202 2.85225 575.094 2.13918 575.986 1.60438C576.878 1.06958 577.86 0.713052 578.93 0.534789C579.822 0.356526 580.804 0.267395 581.874 0.267395C582.945 0.0891315 584.015 0 585.086 0C587.763 0 590.35 0.802194 592.848 2.40658C593.918 3.11964 594.9 3.92182 595.792 4.81315C596.684 5.52621 597.398 6.59581 597.933 8.02193C599.361 11.409 600.074 14.6178 600.074 17.6483C600.253 18.5396 600.342 19.8766 600.342 21.6592C600.52 23.2636 600.61 24.9571 600.61 26.7398C600.61 28.5224 600.61 30.3051 600.61 32.0878C600.788 33.6922 600.877 34.94 600.877 35.8313V37.1683C601.056 42.8728 601.145 48.6664 601.145 54.5492C601.145 60.4319 601.145 66.4038 601.145 72.4649V77.0106C608.639 74.5149 616.49 73.3562 624.698 73.5344C632.906 73.5344 640.222 75.1388 646.645 78.3476C653.247 81.7347 658.243 85.5674 661.634 89.8457C665.202 94.1241 667.789 98.8481 669.395 104.018C671.001 109.188 671.893 114.714 672.072 120.597C672.429 126.479 672.696 132.629 672.875 139.047Z" fill="#524DEF"/>
<path d="M787.081 155.091C789.222 154.556 791.364 154.2 793.505 154.021C795.824 153.843 797.876 154.11 799.661 154.823C801.624 155.537 803.229 156.784 804.478 158.567C805.727 160.171 806.352 162.489 806.352 165.519C806.352 167.659 805.817 169.709 804.746 171.67C803.675 173.63 802.337 175.413 800.731 177.017C799.125 178.622 797.341 180.048 795.378 181.296C793.416 182.365 791.542 183.257 789.758 183.97C784.583 186.287 778.606 188.07 771.825 189.318C765.223 190.566 758.354 191.011 751.216 190.655C741.581 190.298 732.303 188.426 723.381 185.039C714.638 181.474 707.768 175.68 702.772 167.659C698.133 159.815 695.367 151.08 694.475 141.454C693.583 131.827 694.029 122.736 695.813 114.179C697.776 103.84 701.077 95.4611 705.716 89.0435C710.534 82.4477 716.244 77.1889 722.846 73.2671C730.875 68.6322 739.886 66.2256 749.878 66.0473C759.87 65.869 769.416 67.83 778.516 71.9301C784.583 74.604 790.025 78.2585 794.843 82.8934C799.661 87.35 803.319 92.7871 805.817 99.2047C806.53 100.809 807.066 102.77 807.423 105.087C807.958 107.405 808.315 109.901 808.493 112.575C808.672 115.07 808.672 117.566 808.493 120.062C808.315 122.557 807.869 124.786 807.155 126.747C806.084 129.955 804.746 132.451 803.14 134.234C801.534 136.016 799.482 137.353 796.984 138.245C794.486 139.136 791.453 139.76 787.884 140.117C784.494 140.295 780.39 140.473 775.572 140.651C771.29 140.83 767.275 140.919 763.528 140.919C759.781 140.919 755.945 140.919 752.019 140.919C748.094 140.74 743.99 140.651 739.707 140.651C735.603 140.473 730.964 140.295 725.79 140.117C725.254 143.682 725.7 146.802 727.128 149.475C728.734 151.971 730.875 154.11 733.551 155.893C736.228 157.497 739.261 158.745 742.652 159.637C746.042 160.528 749.343 161.063 752.555 161.241C758.621 161.598 764.42 161.152 769.952 159.904C775.483 158.478 781.193 156.873 787.081 155.091ZM775.572 103.216C772.182 99.2938 768.613 96.4415 764.866 94.6589C762.011 93.411 758.978 92.8762 755.766 93.0545C752.733 93.0545 749.789 93.5002 746.934 94.3915C741.759 95.6394 737.388 98.3133 733.819 102.413C733.462 102.77 732.838 103.661 731.946 105.087C731.053 106.335 730.161 107.672 729.269 109.098C728.555 110.525 728.02 111.861 727.663 113.109C727.306 114.357 727.485 114.981 728.199 114.981H780.658C780.479 112.485 780.033 110.435 779.319 108.831C778.606 107.048 777.357 105.177 775.572 103.216Z" fill="#524DEF"/>
<path d="M830.396 97.0655C830.396 94.9263 830.396 92.5197 830.396 89.8457C830.396 86.9935 830.486 84.1412 830.664 81.289C830.842 78.2585 831.11 75.4062 831.467 72.7323C832.002 69.88 832.716 67.3843 833.608 65.2451C835.036 62.0363 837.266 59.8972 840.299 58.8276C843.333 57.5797 846.634 57.0449 850.202 57.2232C853.949 57.2232 856.894 57.8471 859.035 59.095C861.176 60.3428 862.782 62.0363 863.852 64.1755C864.923 66.1364 865.548 68.4539 865.726 71.1279C866.083 73.6236 866.261 76.2976 866.261 79.1498C867.867 76.2976 870.008 73.9801 872.685 72.1975C875.54 70.4148 878.395 68.9887 881.25 67.9191C884.105 66.8495 886.692 66.1364 889.011 65.7799C891.331 65.2451 892.669 64.9777 893.026 64.9777C897.487 64.6212 901.502 64.5321 905.07 64.7103C908.817 64.8886 912.921 65.6908 917.382 67.1169C920.237 68.1865 923.181 69.7017 926.215 71.6627C929.248 73.4453 931.924 75.5845 934.244 78.0802C936.564 80.5759 938.08 83.339 938.794 86.3696C939.686 89.2218 939.329 92.2523 937.723 95.4611C935.225 99.9177 932.46 102.146 929.426 102.146C926.393 101.968 923.092 101.433 919.523 100.542C917.561 100.185 915.241 99.3829 912.565 98.1351C909.888 96.8872 907.568 96.085 905.606 95.7285C899.539 94.8372 894.186 95.2828 889.547 97.0655C884.908 98.8481 880.893 100.987 877.503 103.483C873.577 106.514 870.187 109.99 867.332 113.912V152.417C867.332 157.23 867.243 162.221 867.064 167.391C867.064 172.561 866.351 177.285 864.923 181.563C863.674 185.663 861.444 189.05 858.232 191.724C855.198 194.22 850.738 195.29 844.849 194.933C841.638 194.755 838.783 193.24 836.285 190.387C833.787 187.357 832.27 184.415 831.735 181.563C831.378 178.889 831.11 175.68 830.932 171.937C830.753 168.193 830.575 164.272 830.396 160.171C830.396 156.071 830.396 151.971 830.396 147.871C830.396 143.593 830.396 139.671 830.396 136.106V97.0655Z" fill="#524DEF"/>
</svg>
