<svg width="1193" height="202" viewBox="0 0 1193 202" fill="none" xmlns="http://www.w3.org/2000/svg">
<path d="M46.57 0.450846C27.3962 1.73012 16.0059 6.13648 9.50385 14.7597C4.42564 21.5351 2.19502 28.9265 0.676304 44.2303C-0.225435 53.1378 -0.225435 163.629 0.676304 171.447C2.3374 186.324 5.185 192.057 13.4905 197.411C17.8568 200.207 22.4129 201.533 27.8234 201.533C32.2371 201.533 32.427 201.486 36.1289 199.496C38.2646 198.406 41.7766 196.085 43.9597 194.331C48.7057 190.588 62.5166 176.848 71.2492 167.135C83.0667 154.058 84.7753 152.779 90.2332 152.779C94.03 152.779 96.403 154.058 100.437 158.322C127.774 187.414 136.981 196.132 144.337 199.828C150.412 202.86 157.104 202.718 163.891 199.401C167.166 197.79 168.4 196.843 171.485 193.479C175.661 188.93 177.37 186.229 178.746 182.107C181.783 172.916 182.21 162.018 181.926 100.376C181.688 47.7365 181.594 44.5146 179.41 33.7119C177.37 23.4777 174.19 17.1761 168.162 11.4905C160.854 4.52555 151.836 1.63536 133.659 0.403466C125.591 -0.165099 54.8755 -0.117719 46.57 0.450846ZM125.401 42.8563C128.676 44.4198 130.384 48.2577 129.388 51.8112C128.913 53.5169 125.876 56.7388 106.702 75.8331C82.5447 99.8549 82.8294 99.6654 78.8902 98.4809C77.2766 98.0071 74.9511 95.9223 65.8862 86.9675C59.7639 80.9028 54.4958 75.3593 54.0687 74.6012C52.6924 71.9479 53.2144 67.9679 55.3027 65.5989C57.296 63.372 61.8521 62.5665 64.6523 64.0353C65.4116 64.4618 69.3508 68.11 73.3849 72.1374L80.7412 79.5287L98.7759 61.5242C108.695 51.6691 117.475 43.2353 118.235 42.8563C120.085 41.8613 123.36 41.9087 125.401 42.8563Z" fill="white"/>
<path d="M444.829 19.1025C445.543 22.4895 445.543 26.0548 444.829 29.7984C444.472 31.5811 444.115 33.3637 443.759 35.1464C443.58 36.7508 443.312 38.4443 442.956 40.2269L442.688 41.2965C440.19 52.349 437.335 64.0254 434.123 76.3257C431.09 88.4477 428.324 99.9458 425.826 110.82C423.685 119.733 421.454 129.538 419.135 140.234C416.815 150.93 414.406 160.734 411.908 169.648C411.016 172.678 410.035 175.709 408.964 178.739C408.072 181.77 406.912 184.8 405.485 187.831C404.236 190.505 402.719 192.911 400.935 195.05C399.329 197.011 397.455 198.437 395.314 199.329C393.173 200.398 390.853 200.755 388.355 200.398C386.036 200.22 383.448 199.151 380.593 197.19C376.311 194.159 373.099 189.97 370.958 184.622C368.995 179.274 366.943 174.372 364.802 169.915C364.088 168.667 363.018 165.904 361.59 161.626C360.163 157.347 358.646 152.712 357.04 147.721C355.434 142.551 353.829 137.649 352.223 133.014C350.795 128.201 349.546 124.636 348.476 122.318C346.87 126.24 345.264 130.697 343.658 135.688C342.052 140.679 340.535 145.582 339.108 150.395C337.68 155.208 336.342 159.576 335.093 163.497C334.023 167.241 333.22 170.004 332.684 171.787C331.257 175.352 329.651 179.274 327.867 183.552C326.261 187.831 324.209 191.485 321.711 194.516C319.391 197.546 316.536 199.507 313.146 200.398C309.756 201.468 305.741 200.487 301.102 197.457C297.533 195.318 295.035 192.287 293.608 188.365C292.716 185.87 291.823 183.463 290.931 181.146C290.039 178.828 289.325 176.422 288.79 173.926L283.437 153.871L272.463 110.82C271.036 105.294 269.609 99.6784 268.181 93.9739C266.932 88.0912 265.415 82.0302 263.631 75.7909C262.739 72.7604 261.936 69.819 261.222 66.9667C260.687 63.9362 260.062 60.7275 259.349 57.3404C258.813 53.7751 258.1 49.7641 257.207 45.3075C256.494 40.8509 255.602 35.6812 254.531 29.7984C254.174 27.8375 253.906 26.0548 253.728 24.4505C253.728 22.6678 253.906 20.8851 254.263 19.1025C254.62 16.4285 255.869 14.1111 258.01 12.1502C258.903 11.2588 259.973 10.5458 261.222 10.011C262.471 9.47617 263.809 9.0305 265.237 8.67398C267.378 7.96091 269.609 7.60438 271.928 7.60438C274.069 7.60438 276.3 8.31745 278.619 9.74357C280.225 10.6349 281.474 11.7936 282.366 13.2197L285.578 18.8351C285.935 20.083 286.292 21.2417 286.649 22.3113C287.006 23.2026 287.363 24.1831 287.719 25.2526C288.076 26.5005 288.344 27.6592 288.522 28.7288C288.701 29.6202 288.879 30.5115 289.058 31.4028C290.664 40.6726 292.626 49.675 294.946 58.41C297.266 67.145 299.407 75.5235 301.369 83.5454C302.083 86.7542 302.975 90.7652 304.046 95.5783C305.117 100.213 306.187 105.116 307.258 110.285C308.328 115.277 309.399 120.09 310.47 124.725C311.54 129.36 312.611 133.014 313.681 135.688C316.001 127.666 318.321 119.644 320.64 111.622C323.138 103.6 325.815 95.4892 328.67 87.289C330.097 83.0106 331.525 79.1779 332.952 75.7909C334.558 72.2256 336.342 69.2842 338.305 66.9667C340.268 64.6493 342.498 63.134 344.996 62.421C347.494 61.7079 350.438 61.9753 353.829 63.2232C356.862 64.471 359.538 67.145 361.858 71.2451C364.178 75.3452 366.23 79.5344 368.014 83.8128C369.62 87.7347 371.137 91.9239 372.564 96.3805C374.17 100.659 375.687 104.937 377.114 109.216C378.72 113.316 380.237 117.238 381.664 120.981C383.092 124.725 384.519 127.933 385.946 130.607C386.482 128.647 387.106 126.151 387.82 123.12C388.534 120.09 389.247 116.881 389.961 113.494C390.853 109.929 391.656 106.453 392.37 103.065C393.084 99.6784 393.797 96.5588 394.511 93.7065C396.831 84.0802 399.24 74.4539 401.738 64.8276C404.236 55.023 406.645 45.3966 408.964 35.9486L410.302 31.4028C410.659 30.5115 410.838 29.6202 410.838 28.7288C411.016 27.6592 411.284 26.5005 411.641 25.2526C411.998 24.1831 412.354 23.2026 412.711 22.3113C413.068 21.2417 413.425 20.083 413.782 18.8351C414.139 17.9438 414.496 17.0524 414.852 16.1611C415.388 15.0915 416.012 14.1111 416.726 13.2197C417.261 12.3284 417.886 11.6153 418.6 11.0806C419.313 10.5458 420.027 10.1001 420.741 9.74357C423.239 8.31745 425.38 7.60438 427.164 7.60438C429.484 7.60438 431.714 7.96091 433.856 8.67398C436.71 9.20877 439.298 10.3675 441.617 12.1502C443.402 13.9328 444.472 16.2503 444.829 19.1025Z" fill="#D7D6F4" fill-opacity="0.33"/>
<path d="M483.95 85.1498C489.303 82.4758 494.923 80.604 500.812 79.5344C506.7 78.2866 512.499 78.0192 518.209 78.7323C524.097 79.267 529.718 80.7823 535.071 83.278C540.424 85.5955 545.42 88.9825 550.059 93.4391C554.698 98.074 558.267 103.155 560.765 108.681C563.263 114.207 565.047 120.357 566.118 127.131C566.832 131.766 567.991 136.045 569.597 139.966C571.203 143.888 572.898 147.81 574.683 151.732C576.645 155.654 578.43 159.576 580.036 163.497C581.82 167.419 583.247 171.519 584.318 175.798C585.21 179.898 584.853 183.909 583.247 187.831C581.82 191.574 578.787 193.892 574.147 194.783C571.471 195.318 568.884 195.14 566.385 194.248C564.066 193.179 561.925 191.752 559.962 189.97C557.999 188.009 556.215 185.959 554.609 183.82C553.181 181.502 551.843 179.363 550.594 177.402C546.49 182.75 542.029 186.939 537.212 189.97C532.394 192.822 526.595 194.694 519.815 195.585C514.105 196.298 508.663 196.477 503.488 196.12C498.314 195.763 492.782 194.783 486.894 193.179C479.221 191.218 472.887 187.831 467.891 183.017C463.073 178.026 459.326 172.322 456.65 165.904C454.151 159.308 452.813 152.267 452.635 144.78C452.456 137.292 453.349 129.894 455.311 122.586C457.809 112.959 461.556 105.116 466.553 99.0545C471.549 92.9935 477.348 88.3586 483.95 85.1498ZM490.641 116.435C488.143 118.931 486.18 121.872 484.753 125.26C483.325 128.647 482.433 132.212 482.076 135.955C481.898 139.699 482.255 143.443 483.147 147.186C484.039 150.93 485.466 154.228 487.429 157.08C489.213 159.576 492.247 161.715 496.529 163.497C500.812 165.102 505.272 166.082 509.912 166.439C515.265 166.795 519.904 165.369 523.829 162.16C527.933 158.952 530.967 154.941 532.929 150.128C535.071 145.136 536.052 139.877 535.874 134.351C535.695 128.647 534.178 123.477 531.324 118.842C529.182 115.455 526.327 112.959 522.759 111.355C519.369 109.75 515.711 108.948 511.785 108.948C507.86 108.77 503.934 109.394 500.009 110.82C496.262 112.068 493.139 113.94 490.641 116.435Z" fill="#D7D6F4" fill-opacity="0.33"/>
<path d="M689.245 79.8018C690.672 83.1889 690.761 86.9325 689.512 91.0326C688.442 95.1327 686.39 97.8066 683.356 99.0545C681.75 99.7676 679.609 100.391 676.933 100.926C674.256 101.283 671.312 101.639 668.1 101.996C665.067 102.352 662.034 102.62 659 102.798C655.967 102.976 653.38 103.065 651.238 103.065C651.417 108.413 651.595 113.94 651.774 119.644C651.952 125.17 652.131 130.607 652.309 135.955C652.487 141.303 652.577 146.473 652.577 151.465C652.577 156.278 652.487 160.645 652.309 164.567C652.309 167.241 652.309 170.361 652.309 173.926C652.309 177.313 652.041 180.611 651.506 183.82C651.149 187.028 650.525 189.881 649.633 192.376C648.74 194.694 647.402 196.209 645.618 196.922C640.086 199.24 635.001 199.864 630.362 198.794C625.901 197.903 622.689 196.031 620.726 193.179C619.299 190.861 618.228 188.187 617.515 185.157C616.801 181.948 616.266 178.739 615.909 175.53C615.73 172.143 615.641 168.935 615.641 165.904C615.82 162.695 615.909 159.932 615.909 157.615C616.087 150.128 616.176 141.66 616.176 132.212C616.355 122.586 616.444 112.959 616.444 103.333H612.429C610.288 103.333 607.522 103.333 604.132 103.333C600.92 103.155 597.62 102.887 594.229 102.531C591.018 101.996 587.984 101.372 585.129 100.659C582.274 99.7676 580.222 98.5197 578.973 96.9153C577.011 94.5979 575.762 92.1022 575.226 89.4282C574.869 86.7542 575.048 84.2585 575.762 81.941C576.654 79.4453 577.992 77.3061 579.776 75.5235C581.561 73.5626 583.613 72.3147 585.932 71.7799C589.144 70.8886 593.694 70.4429 599.582 70.4429C605.471 70.2647 611.002 70.2647 616.176 70.4429C615.998 68.6603 615.909 66.9667 615.909 65.3624C615.909 63.5797 615.82 61.8862 615.641 60.2818C615.463 58.1426 615.374 55.4686 615.374 52.2598C615.374 48.8728 615.552 45.5749 615.909 42.3661C616.444 38.9791 617.247 35.8594 618.318 33.0072C619.388 29.9767 620.905 27.6592 622.868 26.0548C625.544 23.9157 628.221 22.7569 630.897 22.5787C633.752 22.2221 636.339 22.5787 638.659 23.6483C641.157 24.7179 643.209 26.3222 644.815 28.4614C646.599 30.4223 647.848 32.6507 648.562 35.1464C649.097 37.2856 649.543 39.8704 649.9 42.9009C650.257 45.7532 650.435 48.7837 650.435 51.9925C650.614 55.2012 650.703 58.41 650.703 61.6188C650.703 64.8276 650.703 67.7689 650.703 70.4429H653.38C656.056 70.4429 659.179 70.3538 662.747 70.1755C666.316 69.9973 669.795 70.0864 673.186 70.4429C676.754 70.7994 679.966 71.6908 682.821 73.1169C685.676 74.3648 687.817 76.5931 689.245 79.8018Z" fill="#D7D6F4" fill-opacity="0.33"/>
<path d="M798.154 94.7761C799.582 97.2719 800.296 99.9458 800.296 102.798C800.474 105.65 799.85 108.324 798.422 110.82C796.816 114.029 794.497 116.257 791.463 117.505C788.608 118.575 785.397 118.664 781.828 117.772C780.222 117.416 778.795 116.792 777.546 115.901C776.297 115.009 774.958 114.118 773.531 113.227C772.282 112.157 770.765 111.177 768.981 110.285C767.375 109.394 765.234 108.77 762.557 108.413C759.881 108.057 756.937 108.057 753.725 108.413C750.691 108.77 747.926 109.483 745.428 110.553C741.502 112.514 738.38 115.544 736.06 119.644C733.74 123.566 732.224 127.844 731.51 132.479C730.796 136.936 730.885 141.482 731.778 146.117C732.848 150.751 734.811 154.673 737.666 157.882C739.807 160.378 742.573 162.428 745.963 164.032C749.532 165.637 752.922 166.617 756.134 166.974C759.167 167.33 762.2 167.33 765.234 166.974C768.267 166.439 771.211 165.726 774.066 164.834C776.207 163.943 778.616 162.784 781.293 161.358C783.969 159.754 786.556 158.773 789.054 158.417C792.266 158.417 794.764 159.308 796.549 161.091C798.333 162.695 799.582 164.745 800.296 167.241C801.009 169.558 801.099 172.054 800.563 174.728C800.206 177.402 799.225 179.72 797.619 181.68C795.478 184.354 792.445 186.939 788.519 189.435C784.594 191.752 780.847 193.446 777.278 194.516C772.995 195.942 768.178 196.744 762.825 196.922C757.65 197.1 752.743 196.922 748.104 196.387C745.963 196.031 743.733 195.585 741.413 195.05C739.093 194.516 736.863 193.892 734.722 193.179C726.871 190.326 720.269 186.315 714.916 181.146C709.741 175.798 705.727 169.826 702.872 163.23C700.195 156.634 698.678 149.593 698.322 142.106C697.965 134.618 698.857 127.22 700.998 119.912C702.961 112.959 705.37 107.076 708.225 102.263C711.258 97.4501 714.737 93.5283 718.663 90.4978C722.767 87.289 727.317 84.7933 732.313 83.0106C737.309 81.0497 742.84 79.3562 748.907 77.9301C755.152 76.6822 761.754 76.6822 768.713 77.9301C775.672 79.1779 781.917 81.4954 787.449 84.8824C791.731 87.1999 795.3 90.4978 798.154 94.7761Z" fill="#D7D6F4" fill-opacity="0.33"/>
<path d="M926.603 145.047C926.781 148.612 926.87 152.356 926.87 156.278C926.87 160.021 926.781 163.497 926.603 166.706C926.424 171.519 926.157 175.976 925.8 180.076C925.443 183.998 924.729 187.385 923.659 190.237C922.588 192.911 920.893 194.961 918.573 196.387C916.432 197.635 913.399 197.992 909.473 197.457C905.369 196.922 902.425 194.961 900.641 191.574C898.857 188.187 897.608 184.354 896.894 180.076C896.359 175.619 896.18 171.163 896.358 166.706C896.537 162.25 896.537 158.773 896.358 156.278C896.18 152.356 896.002 147.899 895.823 142.908C895.823 137.738 895.288 132.925 894.217 128.468C893.325 123.833 891.719 119.912 889.4 116.703C887.08 113.494 883.601 111.8 878.961 111.622C873.073 111.266 868.523 111.711 865.311 112.959C862.278 114.207 860.047 116.079 858.62 118.575C857.193 120.892 856.3 123.744 855.944 127.131C855.765 130.518 855.408 134.173 854.873 138.095L854.605 148.523V168.043C854.605 171.252 854.516 174.639 854.338 178.204C854.338 181.591 853.802 184.711 852.732 187.563C851.661 190.415 849.966 192.822 847.646 194.783C845.505 196.744 842.293 197.724 838.011 197.724C832.658 197.724 828.643 196.031 825.967 192.644C823.469 189.079 822.22 184.711 822.22 179.541V25.7875C822.22 24.7179 822.22 23.7374 822.22 22.8461C822.398 21.7765 822.577 20.7069 822.755 19.6373C823.112 18.5677 823.38 17.5872 823.558 16.6959C823.737 15.6263 824.004 14.6459 824.361 13.7545C824.896 11.9719 825.788 10.6349 827.037 9.74357C827.93 8.85225 828.822 8.13918 829.714 7.60438C830.606 7.06958 831.588 6.71305 832.658 6.53479C833.55 6.35653 834.532 6.26739 835.602 6.26739C836.673 6.08913 837.743 6 838.814 6C841.491 6 844.078 6.80219 846.576 8.40658C847.646 9.11964 848.628 9.92182 849.52 10.8132C850.412 11.5262 851.126 12.5958 851.661 14.0219C853.089 17.409 853.802 20.6178 853.802 23.6483C853.981 24.5396 854.07 25.8766 854.07 27.6592C854.248 29.2636 854.338 30.9571 854.338 32.7398C854.338 34.5224 854.338 36.3051 854.338 38.0878C854.516 39.6922 854.605 40.94 854.605 41.8313V43.1683C854.784 48.8728 854.873 54.6664 854.873 60.5492C854.873 66.4319 854.873 72.4038 854.873 78.4649V83.0106C862.367 80.5149 870.218 79.3562 878.426 79.5344C886.634 79.5344 893.95 81.1388 900.373 84.3476C906.975 87.7347 911.971 91.5674 915.362 95.8457C918.93 100.124 921.517 104.848 923.123 110.018C924.729 115.188 925.621 120.714 925.8 126.597C926.157 132.479 926.424 138.629 926.603 145.047Z" fill="#D7D6F4" fill-opacity="0.33"/>
<path d="M1040.81 161.091C1042.95 160.556 1045.09 160.2 1047.23 160.021C1049.55 159.843 1051.6 160.11 1053.39 160.823C1055.35 161.537 1056.96 162.784 1058.21 164.567C1059.46 166.171 1060.08 168.489 1060.08 171.519C1060.08 173.659 1059.54 175.709 1058.47 177.67C1057.4 179.63 1056.07 181.413 1054.46 183.017C1052.85 184.622 1051.07 186.048 1049.11 187.296C1047.14 188.365 1045.27 189.257 1043.49 189.97C1038.31 192.287 1032.33 194.07 1025.55 195.318C1018.95 196.566 1012.08 197.011 1004.94 196.655C995.309 196.298 986.031 194.426 977.109 191.039C968.366 187.474 961.496 181.68 956.5 173.659C951.861 165.815 949.095 157.08 948.203 147.454C947.311 137.827 947.757 128.736 949.541 120.179C951.504 109.84 954.805 101.461 959.444 95.0435C964.262 88.4477 969.972 83.1889 976.574 79.2671C984.603 74.6322 993.614 72.2256 1003.61 72.0473C1013.6 71.869 1023.14 73.83 1032.24 77.9301C1038.31 80.604 1043.75 84.2585 1048.57 88.8934C1053.39 93.35 1057.05 98.7871 1059.54 105.205C1060.26 106.809 1060.79 108.77 1061.15 111.087C1061.69 113.405 1062.04 115.901 1062.22 118.575C1062.4 121.07 1062.4 123.566 1062.22 126.062C1062.04 128.557 1061.6 130.786 1060.88 132.747C1059.81 135.955 1058.47 138.451 1056.87 140.234C1055.26 142.016 1053.21 143.353 1050.71 144.245C1048.21 145.136 1045.18 145.76 1041.61 146.117C1038.22 146.295 1034.12 146.473 1029.3 146.651C1025.02 146.83 1021 146.919 1017.26 146.919C1013.51 146.919 1009.67 146.919 1005.75 146.919C1001.82 146.74 997.718 146.651 993.435 146.651C989.331 146.473 984.692 146.295 979.518 146.117C978.982 149.682 979.429 152.802 980.856 155.475C982.462 157.971 984.603 160.11 987.28 161.893C989.956 163.497 992.989 164.745 996.38 165.637C999.77 166.528 1003.07 167.063 1006.28 167.241C1012.35 167.598 1018.15 167.152 1023.68 165.904C1029.21 164.478 1034.92 162.873 1040.81 161.091ZM1029.3 109.216C1025.91 105.294 1022.34 102.442 1018.59 100.659C1015.74 99.411 1012.71 98.8762 1009.49 99.0545C1006.46 99.0545 1003.52 99.5002 1000.66 100.391C995.487 101.639 991.116 104.313 987.547 108.413C987.19 108.77 986.566 109.661 985.674 111.087C984.782 112.335 983.889 113.672 982.997 115.098C982.283 116.525 981.748 117.861 981.391 119.109C981.034 120.357 981.213 120.981 981.927 120.981H1034.39C1034.21 118.485 1033.76 116.435 1033.05 114.831C1032.33 113.048 1031.08 111.177 1029.3 109.216Z" fill="#D7D6F4" fill-opacity="0.33"/>
<path d="M1084.12 103.065C1084.12 100.926 1084.12 98.5197 1084.12 95.8457C1084.12 92.9935 1084.21 90.1412 1084.39 87.289C1084.57 84.2585 1084.84 81.4062 1085.2 78.7323C1085.73 75.88 1086.44 73.3843 1087.34 71.2451C1088.76 68.0363 1090.99 65.8972 1094.03 64.8276C1097.06 63.5797 1100.36 63.0449 1103.93 63.2232C1107.68 63.2232 1110.62 63.8471 1112.76 65.095C1114.9 66.3428 1116.51 68.0363 1117.58 70.1755C1118.65 72.1364 1119.28 74.4539 1119.45 77.1279C1119.81 79.6236 1119.99 82.2976 1119.99 85.1498C1121.6 82.2976 1123.74 79.9801 1126.41 78.1975C1129.27 76.4148 1132.12 74.9887 1134.98 73.9191C1137.83 72.8495 1140.42 72.1364 1142.74 71.7799C1145.06 71.2451 1146.4 70.9777 1146.75 70.9777C1151.21 70.6212 1155.23 70.5321 1158.8 70.7103C1162.55 70.8886 1166.65 71.6908 1171.11 73.1169C1173.97 74.1865 1176.91 75.7017 1179.94 77.6627C1182.98 79.4453 1185.65 81.5845 1187.97 84.0802C1190.29 86.5759 1191.81 89.339 1192.52 92.3696C1193.41 95.2218 1193.06 98.2523 1191.45 101.461C1188.95 105.918 1186.19 108.146 1183.15 108.146C1180.12 107.968 1176.82 107.433 1173.25 106.542C1171.29 106.185 1168.97 105.383 1166.29 104.135C1163.62 102.887 1161.3 102.085 1159.33 101.728C1153.27 100.837 1147.91 101.283 1143.27 103.065C1138.64 104.848 1134.62 106.987 1131.23 109.483C1127.31 112.514 1123.91 115.99 1121.06 119.912V158.417C1121.06 163.23 1120.97 168.221 1120.79 173.391C1120.79 178.561 1120.08 183.285 1118.65 187.563C1117.4 191.663 1115.17 195.05 1111.96 197.724C1108.93 200.22 1104.47 201.29 1098.58 200.933C1095.37 200.755 1092.51 199.24 1090.01 196.387C1087.51 193.357 1086 190.415 1085.46 187.563C1085.11 184.889 1084.84 181.68 1084.66 177.937C1084.48 174.193 1084.3 170.272 1084.12 166.171C1084.12 162.071 1084.12 157.971 1084.12 153.871C1084.12 149.593 1084.12 145.671 1084.12 142.106V103.065Z" fill="#D7D6F4" fill-opacity="0.33"/>
<path d="M428.101 19.1025C428.815 22.4895 428.815 26.0548 428.101 29.7984C427.744 31.5811 427.387 33.3637 427.03 35.1464C426.852 36.7508 426.584 38.4443 426.228 40.2269L425.96 41.2965C423.462 52.349 420.607 64.0254 417.395 76.3257C414.362 88.4477 411.596 99.9458 409.098 110.82C406.957 119.733 404.726 129.538 402.407 140.234C400.087 150.93 397.678 160.734 395.18 169.648C394.288 172.678 393.307 175.709 392.236 178.739C391.344 181.77 390.184 184.8 388.757 187.831C387.508 190.505 385.991 192.911 384.207 195.05C382.601 197.011 380.727 198.437 378.586 199.329C376.445 200.398 374.125 200.755 371.627 200.398C369.308 200.22 366.72 199.151 363.865 197.19C359.583 194.159 356.371 189.97 354.23 184.622C352.267 179.274 350.215 174.372 348.074 169.915C347.36 168.667 346.29 165.904 344.862 161.626C343.435 157.347 341.918 152.712 340.312 147.721C338.706 142.551 337.101 137.649 335.495 133.014C334.067 128.201 332.818 124.636 331.748 122.318C330.142 126.24 328.536 130.697 326.93 135.688C325.324 140.679 323.807 145.582 322.38 150.395C320.952 155.208 319.614 159.576 318.365 163.497C317.295 167.241 316.492 170.004 315.956 171.787C314.529 175.352 312.923 179.274 311.139 183.552C309.533 187.831 307.481 191.485 304.983 194.516C302.663 197.546 299.808 199.507 296.418 200.398C293.028 201.468 289.013 200.487 284.374 197.457C280.805 195.318 278.307 192.287 276.88 188.365C275.987 185.87 275.095 183.463 274.203 181.146C273.311 178.828 272.597 176.422 272.062 173.926L266.709 153.871L255.735 110.82C254.308 105.294 252.88 99.6784 251.453 93.9739C250.204 88.0912 248.687 82.0302 246.903 75.7909C246.011 72.7604 245.208 69.819 244.494 66.9667C243.959 63.9362 243.334 60.7275 242.621 57.3404C242.085 53.7751 241.372 49.7641 240.479 45.3075C239.766 40.8509 238.874 35.6812 237.803 29.7984C237.446 27.8375 237.178 26.0548 237 24.4505C237 22.6678 237.178 20.8851 237.535 19.1025C237.892 16.4285 239.141 14.1111 241.282 12.1502C242.175 11.2588 243.245 10.5458 244.494 10.011C245.743 9.47617 247.081 9.0305 248.509 8.67398C250.65 7.96091 252.88 7.60438 255.2 7.60438C257.341 7.60438 259.572 8.31745 261.891 9.74357C263.497 10.6349 264.746 11.7936 265.638 13.2197L268.85 18.8351C269.207 20.083 269.564 21.2417 269.921 22.3113C270.278 23.2026 270.635 24.1831 270.991 25.2526C271.348 26.5005 271.616 27.6592 271.794 28.7288C271.973 29.6202 272.151 30.5115 272.33 31.4028C273.936 40.6726 275.898 49.675 278.218 58.41C280.538 67.145 282.679 75.5235 284.641 83.5454C285.355 86.7542 286.247 90.7652 287.318 95.5783C288.389 100.213 289.459 105.116 290.53 110.285C291.6 115.277 292.671 120.09 293.741 124.725C294.812 129.36 295.883 133.014 296.953 135.688C299.273 127.666 301.593 119.644 303.912 111.622C306.41 103.6 309.087 95.4892 311.942 87.289C313.369 83.0106 314.797 79.1779 316.224 75.7909C317.83 72.2256 319.614 69.2842 321.577 66.9667C323.54 64.6493 325.77 63.134 328.268 62.421C330.766 61.7079 333.71 61.9753 337.101 63.2232C340.134 64.471 342.81 67.145 345.13 71.2451C347.45 75.3452 349.502 79.5344 351.286 83.8128C352.892 87.7347 354.409 91.9239 355.836 96.3805C357.442 100.659 358.959 104.937 360.386 109.216C361.992 113.316 363.509 117.238 364.936 120.981C366.363 124.725 367.791 127.933 369.218 130.607C369.754 128.647 370.378 126.151 371.092 123.12C371.806 120.09 372.519 116.881 373.233 113.494C374.125 109.929 374.928 106.453 375.642 103.065C376.356 99.6784 377.069 96.5588 377.783 93.7065C380.103 84.0802 382.512 74.4539 385.01 64.8276C387.508 55.023 389.917 45.3966 392.236 35.9486L393.574 31.4028C393.931 30.5115 394.11 29.6202 394.11 28.7288C394.288 27.6592 394.556 26.5005 394.913 25.2526C395.27 24.1831 395.626 23.2026 395.983 22.3113C396.34 21.2417 396.697 20.083 397.054 18.8351C397.411 17.9438 397.768 17.0524 398.124 16.1611C398.66 15.0915 399.284 14.1111 399.998 13.2197C400.533 12.3284 401.158 11.6153 401.872 11.0806C402.585 10.5458 403.299 10.1001 404.013 9.74357C406.511 8.31745 408.652 7.60438 410.436 7.60438C412.756 7.60438 414.986 7.96091 417.127 8.67398C419.982 9.20877 422.57 10.3675 424.889 12.1502C426.674 13.9328 427.744 16.2503 428.101 19.1025Z" fill="white"/>
<path d="M467.222 85.1498C472.575 82.4758 478.195 80.604 484.084 79.5344C489.972 78.2866 495.771 78.0192 501.481 78.7323C507.369 79.267 512.99 80.7823 518.343 83.278C523.696 85.5955 528.692 88.9825 533.331 93.4391C537.97 98.074 541.539 103.155 544.037 108.681C546.535 114.207 548.319 120.357 549.39 127.131C550.104 131.766 551.263 136.045 552.869 139.966C554.475 143.888 556.17 147.81 557.955 151.732C559.917 155.654 561.702 159.576 563.308 163.497C565.092 167.419 566.519 171.519 567.59 175.798C568.482 179.898 568.125 183.909 566.519 187.831C565.092 191.574 562.058 193.892 557.419 194.783C554.743 195.318 552.156 195.14 549.657 194.248C547.338 193.179 545.197 191.752 543.234 189.97C541.271 188.009 539.487 185.959 537.881 183.82C536.453 181.502 535.115 179.363 533.866 177.402C529.762 182.75 525.301 186.939 520.484 189.97C515.666 192.822 509.867 194.694 503.087 195.585C497.377 196.298 491.935 196.477 486.76 196.12C481.585 195.763 476.054 194.783 470.166 193.179C462.493 191.218 456.159 187.831 451.163 183.017C446.345 178.026 442.598 172.322 439.922 165.904C437.423 159.308 436.085 152.267 435.907 144.78C435.728 137.292 436.621 129.894 438.583 122.586C441.081 112.959 444.828 105.116 449.825 99.0545C454.821 92.9935 460.62 88.3586 467.222 85.1498ZM473.913 116.435C471.415 118.931 469.452 121.872 468.025 125.26C466.597 128.647 465.705 132.212 465.348 135.955C465.17 139.699 465.527 143.443 466.419 147.186C467.311 150.93 468.738 154.228 470.701 157.08C472.485 159.576 475.519 161.715 479.801 163.497C484.084 165.102 488.544 166.082 493.184 166.439C498.537 166.795 503.176 165.369 507.101 162.16C511.205 158.952 514.239 154.941 516.201 150.128C518.343 145.136 519.324 139.877 519.145 134.351C518.967 128.647 517.45 123.477 514.595 118.842C512.454 115.455 509.599 112.959 506.031 111.355C502.64 109.75 498.983 108.948 495.057 108.948C491.132 108.77 487.206 109.394 483.281 110.82C479.534 112.068 476.411 113.94 473.913 116.435Z" fill="white"/>
<path d="M672.516 79.8018C673.944 83.1889 674.033 86.9325 672.784 91.0326C671.714 95.1327 669.662 97.8066 666.628 99.0545C665.022 99.7676 662.881 100.391 660.205 100.926C657.528 101.283 654.584 101.639 651.372 101.996C648.339 102.352 645.306 102.62 642.272 102.798C639.239 102.976 636.652 103.065 634.51 103.065C634.689 108.413 634.867 113.94 635.046 119.644C635.224 125.17 635.403 130.607 635.581 135.955C635.759 141.303 635.849 146.473 635.849 151.465C635.849 156.278 635.759 160.645 635.581 164.567C635.581 167.241 635.581 170.361 635.581 173.926C635.581 177.313 635.313 180.611 634.778 183.82C634.421 187.028 633.797 189.881 632.905 192.376C632.012 194.694 630.674 196.209 628.89 196.922C623.358 199.24 618.273 199.864 613.634 198.794C609.173 197.903 605.961 196.031 603.998 193.179C602.571 190.861 601.5 188.187 600.787 185.157C600.073 181.948 599.538 178.739 599.181 175.53C599.002 172.143 598.913 168.935 598.913 165.904C599.092 162.695 599.181 159.932 599.181 157.615C599.359 150.128 599.448 141.66 599.448 132.212C599.627 122.586 599.716 112.959 599.716 103.333H595.701C593.56 103.333 590.794 103.333 587.404 103.333C584.192 103.155 580.891 102.887 577.501 102.531C574.289 101.996 571.256 101.372 568.401 100.659C565.546 99.7676 563.494 98.5197 562.245 96.9153C560.283 94.5979 559.034 92.1022 558.498 89.4282C558.141 86.7542 558.32 84.2585 559.033 81.941C559.926 79.4453 561.264 77.3061 563.048 75.5235C564.833 73.5626 566.885 72.3147 569.204 71.7799C572.416 70.8886 576.966 70.4429 582.854 70.4429C588.742 70.2647 594.274 70.2647 599.448 70.4429C599.27 68.6603 599.181 66.9667 599.181 65.3624C599.181 63.5797 599.092 61.8862 598.913 60.2818C598.735 58.1426 598.645 55.4686 598.645 52.2598C598.645 48.8728 598.824 45.5749 599.181 42.3661C599.716 38.9791 600.519 35.8594 601.59 33.0072C602.66 29.9767 604.177 27.6592 606.14 26.0548C608.816 23.9157 611.493 22.7569 614.169 22.5787C617.024 22.2221 619.611 22.5787 621.931 23.6483C624.429 24.7179 626.481 26.3222 628.087 28.4614C629.871 30.4223 631.12 32.6507 631.834 35.1464C632.369 37.2856 632.815 39.8704 633.172 42.9009C633.529 45.7532 633.707 48.7837 633.707 51.9925C633.886 55.2012 633.975 58.41 633.975 61.6188C633.975 64.8276 633.975 67.7689 633.975 70.4429H636.652C639.328 70.4429 642.451 70.3538 646.019 70.1755C649.588 69.9973 653.067 70.0864 656.458 70.4429C660.026 70.7994 663.238 71.6908 666.093 73.1169C668.948 74.3648 671.089 76.5931 672.516 79.8018Z" fill="white"/>
<path d="M781.426 94.7761C782.854 97.2719 783.568 99.9458 783.568 102.798C783.746 105.65 783.122 108.324 781.694 110.82C780.088 114.029 777.769 116.257 774.735 117.505C771.88 118.575 768.669 118.664 765.1 117.772C763.494 117.416 762.067 116.792 760.817 115.901C759.568 115.009 758.23 114.118 756.803 113.227C755.554 112.157 754.037 111.177 752.253 110.285C750.647 109.394 748.506 108.77 745.829 108.413C743.153 108.057 740.209 108.057 736.997 108.413C733.963 108.77 731.198 109.483 728.7 110.553C724.774 112.514 721.652 115.544 719.332 119.644C717.012 123.566 715.496 127.844 714.782 132.479C714.068 136.936 714.157 141.482 715.05 146.117C716.12 150.751 718.083 154.673 720.938 157.882C723.079 160.378 725.845 162.428 729.235 164.032C732.804 165.637 736.194 166.617 739.406 166.974C742.439 167.33 745.472 167.33 748.506 166.974C751.539 166.439 754.483 165.726 757.338 164.834C759.479 163.943 761.888 162.784 764.565 161.358C767.241 159.754 769.828 158.773 772.326 158.417C775.538 158.417 778.036 159.308 779.821 161.091C781.605 162.695 782.854 164.745 783.568 167.241C784.281 169.558 784.371 172.054 783.835 174.728C783.478 177.402 782.497 179.72 780.891 181.68C778.75 184.354 775.717 186.939 771.791 189.435C767.866 191.752 764.119 193.446 760.55 194.516C756.267 195.942 751.45 196.744 746.097 196.922C740.922 197.1 736.015 196.922 731.376 196.387C729.235 196.031 727.005 195.585 724.685 195.05C722.365 194.516 720.135 193.892 717.994 193.179C710.143 190.326 703.541 186.315 698.188 181.146C693.013 175.798 688.998 169.826 686.144 163.23C683.467 156.634 681.95 149.593 681.594 142.106C681.237 134.618 682.129 127.22 684.27 119.912C686.233 112.959 688.642 107.076 691.497 102.263C694.53 97.4501 698.009 93.5283 701.935 90.4978C706.039 87.289 710.589 84.7933 715.585 83.0106C720.581 81.0497 726.112 79.3562 732.179 77.9301C738.424 76.6822 745.026 76.6822 751.985 77.9301C758.944 79.1779 765.189 81.4954 770.721 84.8824C775.003 87.1999 778.572 90.4978 781.426 94.7761Z" fill="white"/>
<path d="M909.875 145.047C910.053 148.612 910.142 152.356 910.142 156.278C910.142 160.021 910.053 163.497 909.875 166.706C909.696 171.519 909.429 175.976 909.072 180.076C908.715 183.998 908.001 187.385 906.931 190.237C905.86 192.911 904.165 194.961 901.845 196.387C899.704 197.635 896.671 197.992 892.745 197.457C888.641 196.922 885.697 194.961 883.913 191.574C882.129 188.187 880.88 184.354 880.166 180.076C879.63 175.619 879.452 171.163 879.63 166.706C879.809 162.25 879.809 158.773 879.63 156.278C879.452 152.356 879.274 147.899 879.095 142.908C879.095 137.738 878.56 132.925 877.489 128.468C876.597 123.833 874.991 119.912 872.672 116.703C870.352 113.494 866.873 111.8 862.233 111.622C856.345 111.266 851.795 111.711 848.583 112.959C845.55 114.207 843.319 116.079 841.892 118.575C840.465 120.892 839.572 123.744 839.216 127.131C839.037 130.518 838.68 134.173 838.145 138.095L837.877 148.523V168.043C837.877 171.252 837.788 174.639 837.61 178.204C837.61 181.591 837.074 184.711 836.004 187.563C834.933 190.415 833.238 192.822 830.918 194.783C828.777 196.744 825.565 197.724 821.283 197.724C815.93 197.724 811.915 196.031 809.239 192.644C806.741 189.079 805.492 184.711 805.492 179.541V25.7875C805.492 24.7179 805.492 23.7374 805.492 22.8461C805.67 21.7765 805.849 20.7069 806.027 19.6373C806.384 18.5677 806.652 17.5872 806.83 16.6959C807.009 15.6263 807.276 14.6459 807.633 13.7545C808.168 11.9719 809.06 10.6349 810.309 9.74357C811.202 8.85225 812.094 8.13918 812.986 7.60438C813.878 7.06958 814.86 6.71305 815.93 6.53479C816.822 6.35653 817.804 6.26739 818.874 6.26739C819.945 6.08913 821.015 6 822.086 6C824.763 6 827.35 6.80219 829.848 8.40658C830.918 9.11964 831.9 9.92182 832.792 10.8132C833.684 11.5262 834.398 12.5958 834.933 14.0219C836.361 17.409 837.074 20.6178 837.074 23.6483C837.253 24.5396 837.342 25.8766 837.342 27.6592C837.52 29.2636 837.61 30.9571 837.61 32.7398C837.61 34.5224 837.61 36.3051 837.61 38.0878C837.788 39.6922 837.877 40.94 837.877 41.8313V43.1683C838.056 48.8728 838.145 54.6664 838.145 60.5492C838.145 66.4319 838.145 72.4038 838.145 78.4649V83.0106C845.639 80.5149 853.49 79.3562 861.698 79.5344C869.906 79.5344 877.222 81.1388 883.645 84.3476C890.247 87.7347 895.243 91.5674 898.634 95.8457C902.202 100.124 904.789 104.848 906.395 110.018C908.001 115.188 908.893 120.714 909.072 126.597C909.429 132.479 909.696 138.629 909.875 145.047Z" fill="white"/>
<path d="M1024.08 161.091C1026.22 160.556 1028.36 160.2 1030.5 160.021C1032.82 159.843 1034.88 160.11 1036.66 160.823C1038.62 161.537 1040.23 162.784 1041.48 164.567C1042.73 166.171 1043.35 168.489 1043.35 171.519C1043.35 173.659 1042.82 175.709 1041.75 177.67C1040.68 179.63 1039.34 181.413 1037.73 183.017C1036.13 184.622 1034.34 186.048 1032.38 187.296C1030.42 188.365 1028.54 189.257 1026.76 189.97C1021.58 192.287 1015.61 194.07 1008.83 195.318C1002.22 196.566 995.354 197.011 988.216 196.655C978.581 196.298 969.303 194.426 960.381 191.039C951.638 187.474 944.768 181.68 939.772 173.659C935.133 165.815 932.367 157.08 931.475 147.454C930.583 137.827 931.029 128.736 932.813 120.179C934.776 109.84 938.077 101.461 942.716 95.0435C947.534 88.4477 953.244 83.1889 959.846 79.2671C967.875 74.6322 976.886 72.2256 986.878 72.0473C996.87 71.869 1006.42 73.83 1015.52 77.9301C1021.58 80.604 1027.03 84.2585 1031.84 88.8934C1036.66 93.35 1040.32 98.7871 1042.82 105.205C1043.53 106.809 1044.07 108.77 1044.42 111.087C1044.96 113.405 1045.31 115.901 1045.49 118.575C1045.67 121.07 1045.67 123.566 1045.49 126.062C1045.31 128.557 1044.87 130.786 1044.15 132.747C1043.08 135.955 1041.75 138.451 1040.14 140.234C1038.53 142.016 1036.48 143.353 1033.98 144.245C1031.49 145.136 1028.45 145.76 1024.88 146.117C1021.49 146.295 1017.39 146.473 1012.57 146.651C1008.29 146.83 1004.28 146.919 1000.53 146.919C996.781 146.919 992.945 146.919 989.019 146.919C985.094 146.74 980.99 146.651 976.707 146.651C972.603 146.473 967.964 146.295 962.79 146.117C962.254 149.682 962.7 152.802 964.128 155.475C965.734 157.971 967.875 160.11 970.551 161.893C973.228 163.497 976.261 164.745 979.652 165.637C983.042 166.528 986.343 167.063 989.555 167.241C995.621 167.598 1001.42 167.152 1006.95 165.904C1012.48 164.478 1018.19 162.873 1024.08 161.091ZM1012.57 109.216C1009.18 105.294 1005.61 102.442 1001.87 100.659C999.011 99.411 995.978 98.8762 992.766 99.0545C989.733 99.0545 986.789 99.5002 983.934 100.391C978.759 101.639 974.388 104.313 970.819 108.413C970.462 108.77 969.838 109.661 968.946 111.087C968.053 112.335 967.161 113.672 966.269 115.098C965.555 116.525 965.02 117.861 964.663 119.109C964.306 120.357 964.485 120.981 965.199 120.981H1017.66C1017.48 118.485 1017.03 116.435 1016.32 114.831C1015.61 113.048 1014.36 111.177 1012.57 109.216Z" fill="white"/>
<path d="M1067.4 103.065C1067.4 100.926 1067.4 98.5197 1067.4 95.8457C1067.4 92.9935 1067.49 90.1412 1067.66 87.289C1067.84 84.2585 1068.11 81.4062 1068.47 78.7323C1069 75.88 1069.72 73.3843 1070.61 71.2451C1072.04 68.0363 1074.27 65.8972 1077.3 64.8276C1080.33 63.5797 1083.63 63.0449 1087.2 63.2232C1090.95 63.2232 1093.89 63.8471 1096.03 65.095C1098.18 66.3428 1099.78 68.0363 1100.85 70.1755C1101.92 72.1364 1102.55 74.4539 1102.73 77.1279C1103.08 79.6236 1103.26 82.2976 1103.26 85.1498C1104.87 82.2976 1107.01 79.9801 1109.68 78.1975C1112.54 76.4148 1115.39 74.9887 1118.25 73.9191C1121.1 72.8495 1123.69 72.1364 1126.01 71.7799C1128.33 71.2451 1129.67 70.9777 1130.03 70.9777C1134.49 70.6212 1138.5 70.5321 1142.07 70.7103C1145.82 70.8886 1149.92 71.6908 1154.38 73.1169C1157.24 74.1865 1160.18 75.7017 1163.21 77.6627C1166.25 79.4453 1168.92 81.5845 1171.24 84.0802C1173.56 86.5759 1175.08 89.339 1175.79 92.3696C1176.69 95.2218 1176.33 98.2523 1174.72 101.461C1172.23 105.918 1169.46 108.146 1166.43 108.146C1163.39 107.968 1160.09 107.433 1156.52 106.542C1154.56 106.185 1152.24 105.383 1149.56 104.135C1146.89 102.887 1144.57 102.085 1142.61 101.728C1136.54 100.837 1131.19 101.283 1126.55 103.065C1121.91 104.848 1117.89 106.987 1114.5 109.483C1110.58 112.514 1107.19 115.99 1104.33 119.912V158.417C1104.33 163.23 1104.24 168.221 1104.06 173.391C1104.06 178.561 1103.35 183.285 1101.92 187.563C1100.67 191.663 1098.44 195.05 1095.23 197.724C1092.2 200.22 1087.74 201.29 1081.85 200.933C1078.64 200.755 1075.78 199.24 1073.28 196.387C1070.79 193.357 1069.27 190.415 1068.73 187.563C1068.38 184.889 1068.11 181.68 1067.93 177.937C1067.75 174.193 1067.57 170.272 1067.4 166.171C1067.4 162.071 1067.4 157.971 1067.4 153.871C1067.4 149.593 1067.4 145.671 1067.4 142.106V103.065Z" fill="white"/>
</svg>
