<svg width="91" height="101" viewBox="0 0 91 101" fill="none" xmlns="http://www.w3.org/2000/svg">
<path d="M24.2615 2.36803C15.096 2.98057 9.65115 5.09045 6.54305 9.21946C4.11555 12.4637 3.04927 16.0028 2.32329 23.3307C1.89224 27.5958 1.89224 80.5016 2.32329 84.245C3.11733 91.3687 4.47854 94.1138 8.44875 96.6774C10.5359 98.0159 12.7139 98.6512 15.3002 98.6512C17.4101 98.6512 17.5008 98.6285 19.2704 97.6756C20.2913 97.1538 21.9701 96.0422 23.0137 95.2027C25.2824 93.4105 31.8843 86.8313 36.0587 82.1805C41.7077 75.9189 42.5244 75.3064 45.1334 75.3064C46.9484 75.3064 48.0827 75.9189 50.0111 77.9607C63.0788 91.8905 67.48 96.0648 70.9965 97.8344C73.9004 99.2864 77.0993 99.2183 80.3435 97.6302C81.9089 96.8589 82.4987 96.4051 83.9734 94.7944C85.9698 92.6164 86.7865 91.3233 87.4445 89.3495C88.8964 84.9483 89.1006 79.7303 88.9645 50.2147C88.8511 25.0095 88.8057 23.4668 87.7621 18.2942C86.7865 13.3938 85.2665 10.3765 82.3853 7.65407C78.8915 4.31909 74.581 2.9352 65.8919 2.34534C62.0352 2.0731 28.2317 2.09579 24.2615 2.36803ZM61.9444 22.6728C63.5098 23.4214 64.3265 25.2591 63.8501 26.9606C63.6232 27.7773 62.1713 29.32 53.0058 38.4629C41.4582 49.9651 41.5943 49.8744 39.7113 49.3072C38.9399 49.0803 37.8283 48.0821 33.4951 43.7943C30.5685 40.8903 28.0502 38.236 27.846 37.873C27.1881 36.6025 27.4377 34.6968 28.4359 33.5625C29.3887 32.4962 31.5667 32.1105 32.9052 32.8138C33.2682 33.018 35.1512 34.7649 37.0796 36.6933L40.5961 40.2324L49.2171 31.6114C53.9586 26.8925 58.1557 22.8543 58.5187 22.6728C59.4035 22.1964 60.9689 22.219 61.9444 22.6728Z" fill="white" stroke="black" stroke-width="4"/>
</svg>
